<?xml version="1.0" encoding="UTF-8"?>
<svg xmlns="http://www.w3.org/2000/svg" version="1.1" viewBox="0 0 1080 1080">
  <defs>
    <style>
      .cls-1, .cls-2 {
        fill: #fff;
      }

      .cls-2 {
        stroke: #1d1d1b;
      }

      .cls-2, .cls-3 {
        stroke-linecap: round;
      }

      .cls-2, .cls-3, .cls-4 {
        stroke-miterlimit: 10;
      }

      .cls-3 {
        stroke: #fff;
        stroke-width: 20px;
      }

      .cls-3, .cls-4 {
        fill: none;
      }

      .cls-5 {
        display: none;
      }

      .cls-4 {
        stroke: #000;
        stroke-width: 30px;
      }
    </style>
  </defs>
  <!-- Generator: Adobe Illustrator 28.6.0, SVG Export Plug-In . SVG Version: 1.2.0 Build 709)  -->
  <g>
    <g id="_Слой_1" data-name="Слой_1">
      <circle class="cls-1" cx="540" cy="540" r="470"/>
      <rect x="686.47" y="604.41" width="169.23" height="210.01" transform="translate(-275.79 753.02) rotate(-45)"/>
      <path class="cls-1" d="M785.14,926.67c.4-.15,3.21-1.3,3.55-1.43,1.31-.57,2.61-1.15,3.91-1.76,2.48-1.17,4.93-2.4,7.35-3.7,2.93-1.58,5.8-3.28,8.59-5.09,1.18-.77,2.34-1.55,3.49-2.36.26-.18,2.07-1.56,2.04-1.52,10.97-8.77,21.16-18.74,31.05-28.68,18.54-18.63,37.29-39.31,51.36-59.02,27.12-38.01,45.09-77.68,57.51-121.57v-7.54h-365v250h142.18c17.95-5.83,36.29-10.49,53.96-17.33Z"/>
      <rect x="346.5" y="154" width="110" height="806.5"/>
      <rect x="547.47" y="577.48" width="107" height="427.92" transform="translate(-383.61 656.76) rotate(-45)"/>
      <rect x="339.95" y="523.88" width="427.92" height="107" transform="translate(-246.03 560.79) rotate(-45)"/>
      <path d="M97.98,476c-4.82,30.59-7.45,62.61-6.39,94.6,1.11,33.44,6.15,64.27,15.68,96.77,1.08,1.48,1.95,3.12,2.51,4.87,5.58,17.39,11.25,34.76,17.42,51.95,2.66,7.42,5.42,14.81,8.3,22.15,1.53,3.88,3.09,7.75,4.69,11.61.01.02.19.44.34.82.24.56.69,1.63.78,1.82.72,1.67,1.44,3.33,2.18,5,6.27,14.2,13.18,28.13,20.9,41.6,7.71,13.44,16.22,26.48,25.68,38.76.24.3,1.05,1.34,1.35,1.71.5.63,1,1.26,1.51,1.89,1.35,1.68,2.73,3.34,4.11,5,2.45,2.92,4.96,5.8,7.51,8.63,4.29,4.76,8.73,9.38,13.28,13.88,15.14,11.37,30.13,22.95,45.45,34.07,8.45,6.13,16.99,12.14,25.7,17.9v-453.01H97.98Z"/>
      <path d="M137.5,329.5l-3.2,3.1c-3.32,10.65-6.83,21.25-10.43,31.81-9.98,29.25-20.63,58.3-29.27,87.98-2.33,7.99-4.5,16.03-6.48,24.11h201.38l-152-147Z"/>
      <path d="M796.38,889.7c5.27-4.97,11.06-9.43,16.9-13.74,20.58-16.32,41.6-32.19,61.43-49.38v-133.58h-235.42v113.65c2.24,2.12,4.21,4.52,5.89,7.12,7.02,10.87,14.53,21.41,22.39,31.7,9.78,12.38,20.02,24.4,30.65,36.07,3.23,2.78,6.44,5.59,9.61,8.46h88.24c.1-.1.2-.2.31-.3Z"/>
      <line class="cls-3" x1="598.5" y1="698.5" x2="798" y2="898"/>
      <line class="cls-4" x1="911" y1="688" x2="753" y2="530"/>
      <line class="cls-4" x1="767.73" y1="523.73" x2="601.64" y2="689.83"/>
      <rect x="829" y="545.5" width="30" height="70"/>
      <rect x="217" y="250.5" width="30" height="250" transform="translate(-197.57 274.03) rotate(-45)"/>
      <rect x="233.36" y="315.13" width="30" height="70"/>
      <rect class="cls-1" x="772.97" y="774.83" width="70.53" height="108.67"/>
      <rect class="cls-1" x="734" y="631" width="47" height="47"/>
      <path class="cls-5" d="M513.06,799.05c-5.08-6.73-9.95-13.6-14.93-20.4-.17-.23-.32-.44-.48-.66h-17.65v200h40v-170.05c-2.35-2.9-4.66-5.87-6.94-8.89Z"/>
      <path class="cls-5" d="M549.12,829h-16.12v170.96c7.48.2,14.95.51,22.38,1.26,5.86.59,11.73,1.11,17.62,1.49v-149.21c-8.38-7.74-16.33-15.95-23.88-24.51Z"/>
      <path class="cls-5" d="M587.33,872h-2.33v127.86c4.58-.79,9.22-1.63,13.95-2.53,8.71-1.64,17.39-3.41,26.05-5.28v-83.07c-12.69-12.19-25.46-24.3-37.67-36.98Z"/>
      <rect class="cls-1" x="444.59" y="853.25" width="256.68" height="14.65" transform="translate(369.53 1874.21) rotate(-135)"/>
      <rect class="cls-1" x="526" y="388" width="272" height="74"/>
      <rect class="cls-1" x="272.24" y="143.08" width="210.56" height="94.67" transform="translate(-24.07 322.72) rotate(-45)"/>
      <path d="M540,115c57.4,0,113.05,11.23,165.41,33.38,50.6,21.4,96.06,52.05,135.11,91.1,39.05,39.05,69.7,84.5,91.1,135.11,22.15,52.36,33.38,108.02,33.38,165.41s-11.23,113.05-33.38,165.41c-21.4,50.6-52.05,96.06-91.1,135.11-39.05,39.05-84.5,69.7-135.11,91.1-52.36,22.15-108.02,33.38-165.41,33.38s-113.05-11.23-165.41-33.38c-50.6-21.4-96.06-52.05-135.11-91.1-39.05-39.05-69.7-84.5-91.1-135.11-22.15-52.36-33.38-108.02-33.38-165.41s11.23-113.05,33.38-165.41c21.4-50.6,52.05-96.06,91.1-135.11,39.05-39.05,84.5-69.7,135.11-91.1,52.36-22.15,108.02-33.38,165.41-33.38M540,65c-262.34,0-475,212.66-475,475s212.66,475,475,475,475-212.66,475-475S802.34,65,540,65h0Z"/>
      <rect class="cls-2" x="176.5" y="518.5" width="71" height="91"/>
      <rect class="cls-2" x="176.5" y="618.5" width="71" height="91"/>
    </g>
  </g>
</svg>