<?xml version="1.0" encoding="UTF-8"?>
<svg xmlns="http://www.w3.org/2000/svg" version="1.1" viewBox="0 0 1080 1080">
  <defs>
    <style>
      .cls-1, .cls-2 {
        fill: #fff;
      }

      .cls-3 {
        stroke: #000;
        stroke-width: 30px;
      }

      .cls-3, .cls-4, .cls-5, .cls-2 {
        display: none;
      }

      .cls-3, .cls-5 {
        fill: none;
      }

      .cls-3, .cls-5, .cls-2 {
        stroke-miterlimit: 10;
      }

      .cls-5 {
        stroke: #fff;
        stroke-width: 20px;
      }

      .cls-5, .cls-2 {
        stroke-linecap: round;
      }

      .cls-2 {
        stroke: #1d1d1b;
      }
    </style>
  </defs>
  <!-- Generator: Adobe Illustrator 28.6.0, SVG Export Plug-In . SVG Version: 1.2.0 Build 709)  -->
  <g>
    <g id="_Слой_1" data-name="Слой_1">
      <g id="_Слой_1-2" data-name="_Слой_1">
        <circle class="cls-1" cx="540" cy="540" r="470"/>
        <rect class="cls-4" x="686.5" y="604.4" width="169.2" height="210" transform="translate(-275.8 753) rotate(-45)"/>
        <path class="cls-1" d="M785.1,926.7c.4-.2,3.2-1.3,3.5-1.4,1.3-.6,2.6-1.2,3.9-1.8,2.5-1.2,4.9-2.4,7.3-3.7,2.9-1.6,5.8-3.3,8.6-5.1,1.2-.8,2.3-1.5,3.5-2.4.3-.2,2.1-1.6,2-1.5,11-8.8,21.2-18.7,31-28.7,18.5-18.6,37.3-39.3,51.4-59,27.1-38,45.1-77.7,57.5-121.6v-7.5h-365v250h142.2c18-5.8,36.3-10.5,54-17.3h0Z"/>
        <rect x="346.5" y="154" width="110" height="806.5"/>
        <rect x="547.5" y="577.5" width="107" height="427.9" transform="translate(-383.6 656.8) rotate(-45)"/>
        <rect x="340" y="523.9" width="427.9" height="107" transform="translate(-246 560.8) rotate(-45)"/>
        <path class="cls-4" d="M98,476c-4.8,30.6-7.4,62.6-6.4,94.6,1.1,33.4,6.2,64.3,15.7,96.8,1.1,1.5,1.9,3.1,2.5,4.9,5.6,17.4,11.2,34.8,17.4,52,2.7,7.4,5.4,14.8,8.3,22.2,1.5,3.9,3.1,7.8,4.7,11.6,0,0,.2.4.3.8.2.6.7,1.6.8,1.8.7,1.7,1.4,3.3,2.2,5,6.3,14.2,13.2,28.1,20.9,41.6,7.7,13.4,16.2,26.5,25.7,38.8.2.3,1.1,1.3,1.4,1.7.5.6,1,1.3,1.5,1.9,1.4,1.7,2.7,3.3,4.1,5,2.4,2.9,5,5.8,7.5,8.6,4.3,4.8,8.7,9.4,13.3,13.9,15.1,11.4,30.1,23,45.4,34.1,8.5,6.1,17,12.1,25.7,17.9v-453H98Z"/>
        <path class="cls-4" d="M137.5,329.5l-3.2,3.1c-3.3,10.6-6.8,21.2-10.4,31.8-10,29.2-20.6,58.3-29.3,88-2.3,8-4.5,16-6.5,24.1h201.4l-152-147Z"/>
        <path class="cls-4" d="M796.4,889.7c5.3-5,11.1-9.4,16.9-13.7,20.6-16.3,41.6-32.2,61.4-49.4v-133.6h-235.4v113.7c2.2,2.1,4.2,4.5,5.9,7.1,7,10.9,14.5,21.4,22.4,31.7,9.8,12.4,20,24.4,30.7,36.1,3.2,2.8,6.4,5.6,9.6,8.5h88.2c0,0,.2-.2.3-.3h0Z"/>
        <line class="cls-5" x1="598.5" y1="698.5" x2="798" y2="898"/>
        <line class="cls-3" x1="911" y1="688" x2="753" y2="530"/>
        <line class="cls-3" x1="767.7" y1="523.7" x2="601.6" y2="689.8"/>
        <rect class="cls-4" x="829" y="545.5" width="30" height="70"/>
        <rect class="cls-4" x="217" y="250.5" width="30" height="250" transform="translate(-197.6 274) rotate(-45)"/>
        <rect class="cls-4" x="233.4" y="315.1" width="30" height="70"/>
        <rect class="cls-1" x="773" y="774.8" width="70.5" height="108.7"/>
        <rect class="cls-1" x="734" y="631" width="47" height="47"/>
        <path class="cls-4" d="M513.1,799c-5.1-6.7-10-13.6-14.9-20.4-.2-.2-.3-.4-.5-.7h-17.6v200h40v-170c-2.3-2.9-4.7-5.9-6.9-8.9Z"/>
        <path class="cls-4" d="M549.1,829h-16.1v171c7.5.2,15,.5,22.4,1.3,5.9.6,11.7,1.1,17.6,1.5v-149.2c-8.4-7.7-16.3-16-23.9-24.5h0Z"/>
        <path class="cls-4" d="M587.3,872h-2.3v127.9c4.6-.8,9.2-1.6,14-2.5,8.7-1.6,17.4-3.4,26-5.3v-83.1c-12.7-12.2-25.5-24.3-37.7-37h0Z"/>
        <rect class="cls-1" x="565.6" y="732.2" width="14.7" height="256.7" transform="translate(-440.7 657.2) rotate(-45)"/>
        <rect class="cls-1" x="526" y="388" width="272" height="74"/>
        <rect class="cls-1" x="272.2" y="143.1" width="210.6" height="94.7" transform="translate(-24.1 322.7) rotate(-45)"/>
        <path d="M540,115c57.4,0,113,11.2,165.4,33.4,50.6,21.4,96.1,52.1,135.1,91.1,39,39,69.7,84.5,91.1,135.1,22.2,52.4,33.4,108,33.4,165.4s-11.2,113-33.4,165.4c-21.4,50.6-52,96.1-91.1,135.1s-84.5,69.7-135.1,91.1c-52.4,22.2-108,33.4-165.4,33.4s-113-11.2-165.4-33.4c-50.6-21.4-96.1-52-135.1-91.1s-69.7-84.5-91.1-135.1c-22.2-52.4-33.4-108-33.4-165.4s11.2-113,33.4-165.4c21.4-50.6,52.1-96.1,91.1-135.1,39-39.1,84.5-69.7,135.1-91.1,52.4-22.2,108-33.4,165.4-33.4M540,65c-262.3,0-475,212.7-475,475s212.7,475,475,475,475-212.7,475-475S802.3,65,540,65h0Z"/>
        <rect class="cls-2" x="176.5" y="518.5" width="71" height="91"/>
        <rect class="cls-2" x="176.5" y="618.5" width="71" height="91"/>
      </g>
    </g>
  </g>
</svg>