<!DOCTYPE svg PUBLIC "-//W3C//DTD SVG 1.1//EN" "http://www.w3.org/Graphics/SVG/1.1/DTD/svg11.dtd">

<!-- Uploaded to: SVG Repo, www.svgrepo.com, Transformed by: SVG Repo Mixer Tools -->
<svg height="100px" width="100px" version="1.1" id="Layer_1" xmlns="http://www.w3.org/2000/svg" xmlns:xlink="http://www.w3.org/1999/xlink" viewBox="0 0 512.00 512.00" xml:space="preserve" fill="#000000" stroke="#000000" stroke-width="0.00512" transform="matrix(1, 0, 0, 1, 0, 0)rotate(0)">

<g id="SVGRepo_bgCarrier" stroke-width="0"/>

<g id="SVGRepo_tracerCarrier" stroke-linecap="round" stroke-linejoin="round" stroke="#CCCCCC" stroke-width="6.144"/>

<g id="SVGRepo_iconCarrier"> <polygon style="fill:#009f00;" points="393.681,281.098 393.681,0 118.32,0 118.32,281.098 26.697,281.098 256,512 485.303,281.098 "/> <polygon style="fill:#009f00	;" points="95.512,309.742 146.963,309.742 146.963,28.644 365.037,28.644 365.037,309.742 416.489,309.742 256,471.349 "/> <g> <path style="fill:#292929;" d="M209.029,215.843c-24.03,0-43.58-19.55-43.58-43.58s19.55-43.579,43.58-43.579 s43.58,19.55,43.58,43.579C252.61,196.293,233.06,215.843,209.029,215.843z M209.029,145.715c-14.639,0-26.55,11.911-26.55,26.548 c0,14.639,11.911,26.55,26.55,26.55s26.55-11.911,26.55-26.55C235.579,157.624,223.67,145.715,209.029,145.715z"/> <path style="fill:#292929;" d="M302.972,309.785c-24.03,0-43.58-19.55-43.58-43.58c0-24.03,19.55-43.579,43.58-43.579 s43.579,19.55,43.579,43.579C346.551,290.235,327.002,309.785,302.972,309.785z M302.972,239.656 c-14.639,0-26.55,11.911-26.55,26.548c0,14.639,11.911,26.55,26.55,26.55s26.548-11.911,26.548-26.55 C329.52,251.567,317.611,239.656,302.972,239.656z"/> <path style="fill:#292929;" d="M211.373,272.377c-2.18,0-4.359-0.831-6.022-2.494c-3.326-3.326-3.326-8.717,0-12.042l89.254-89.255 c3.326-3.326,8.717-3.326,12.043,0c3.325,3.326,3.325,8.717,0,12.042l-89.255,89.255 C215.732,271.546,213.552,272.377,211.373,272.377z"/> </g> </g>

</svg>